<svg width="42" height="45" viewBox="0 0 42 45" fill="none" xmlns="http://www.w3.org/2000/svg">
<path d="M21 3.04346C10.8527 3.04346 2.625 11.663 2.625 22.2935C2.625 32.9239 10.8527 41.5435 21 41.5435C31.1473 41.5435 39.375 32.9239 39.375 22.2935C39.375 11.663 31.1473 3.04346 21 3.04346ZM29.8307 17.554C29.843 17.756 29.843 17.9665 29.843 18.1728C29.843 24.4806 25.2574 31.7466 16.8779 31.7466C14.2939 31.7466 11.8986 30.9603 9.88066 29.6067C10.2498 29.6497 10.6025 29.6669 10.9799 29.6669C13.1127 29.6669 15.0732 28.9106 16.6359 27.6302C14.6344 27.5872 12.9527 26.2122 12.3785 24.3216C13.0799 24.429 13.7115 24.429 14.4334 24.2356C13.4028 24.0163 12.4764 23.4299 11.8117 22.5761C11.1471 21.7223 10.785 20.6538 10.7871 19.5521V19.4919C11.39 19.8485 12.0996 20.0677 12.842 20.0978C12.2179 19.662 11.7061 19.0717 11.3519 18.3791C10.9978 17.6866 10.8122 16.9131 10.8117 16.1274C10.8117 15.238 11.0332 14.4259 11.4311 13.7212C12.575 15.1965 14.0025 16.4031 15.6207 17.2625C17.2389 18.122 19.0116 18.6151 20.8236 18.7099C20.1797 15.4657 22.493 12.8403 25.2738 12.8403C26.5863 12.8403 27.7676 13.4161 28.6002 14.3442C29.6297 14.1423 30.6141 13.7384 31.4918 13.197C31.1514 14.3013 30.4377 15.2337 29.4902 15.8224C30.409 15.7192 31.2949 15.4528 32.1152 15.079C31.4959 16.0329 30.7207 16.8794 29.8307 17.554V17.554Z" fill="#3D9EE1"/>
</svg>
