<svg width="39" height="40" viewBox="0 0 39 40" fill="none" xmlns="http://www.w3.org/2000/svg">
<g clip-path="url(#clip0)">
<path d="M38.3906 19.7935C38.3906 9.35791 29.9355 0.902832 19.5 0.902832C9.06445 0.902832 0.609375 9.35791 0.609375 19.7935C0.609375 29.222 7.5174 37.0372 16.5483 38.4556V25.2542H11.7495V19.7935H16.5483V15.6314C16.5483 10.8973 19.3667 8.28236 23.6834 8.28236C25.7507 8.28236 27.9124 8.65104 27.9124 8.65104V13.2975H25.5298C23.1837 13.2975 22.4517 14.7539 22.4517 16.2477V19.7935H27.6908L26.8529 25.2542H22.4517V38.4556C31.4826 37.0372 38.3906 29.222 38.3906 19.7935Z" fill="#3D9EE1"/>
</g>
<defs>
<clipPath id="clip0">
<rect width="39" height="39" fill="white" transform="translate(0 0.293457)"/>
</clipPath>
</defs>
</svg>
