<svg width="48" height="47" viewBox="0 0 48 47" fill="none" xmlns="http://www.w3.org/2000/svg">
<path d="M24.0002 17.3818C20.5596 17.3818 17.7518 20.1311 17.7518 23.5C17.7518 26.869 20.5596 29.6183 24.0002 29.6183C27.4408 29.6183 30.2487 26.869 30.2487 23.5C30.2487 20.1311 27.4408 17.3818 24.0002 17.3818ZM42.7408 23.5C42.7408 20.9665 42.7643 18.4558 42.619 15.9268C42.4737 12.9893 41.7893 10.3823 39.5955 8.23423C37.3971 6.08159 34.7393 5.41606 31.7393 5.27378C29.1518 5.13149 26.5877 5.15444 24.0049 5.15444C21.4174 5.15444 18.8533 5.13149 16.2705 5.27378C13.2705 5.41606 10.608 6.08618 8.41428 8.23423C6.21585 10.3869 5.53616 12.9893 5.39085 15.9268C5.24553 18.4604 5.26897 20.971 5.26897 23.5C5.26897 26.0291 5.24553 28.5443 5.39085 31.0733C5.53616 34.0108 6.22053 36.6178 8.41428 38.7659C10.6127 40.9185 13.2705 41.584 16.2705 41.7263C18.858 41.8686 21.4221 41.8457 24.0049 41.8457C26.5924 41.8457 29.1565 41.8686 31.7393 41.7263C34.7393 41.584 37.4018 40.9139 39.5955 38.7659C41.794 36.6132 42.4737 34.0108 42.619 31.0733C42.769 28.5443 42.7408 26.0336 42.7408 23.5V23.5ZM24.0002 32.9138C18.6799 32.9138 14.3862 28.7095 14.3862 23.5C14.3862 18.2906 18.6799 14.0863 24.0002 14.0863C29.3205 14.0863 33.6143 18.2906 33.6143 23.5C33.6143 28.7095 29.3205 32.9138 24.0002 32.9138ZM34.008 15.8993C32.7658 15.8993 31.7627 14.917 31.7627 13.7007C31.7627 12.4844 32.7658 11.5022 34.008 11.5022C35.2502 11.5022 36.2533 12.4844 36.2533 13.7007C36.2537 13.9895 36.1959 14.2756 36.0832 14.5425C35.9705 14.8094 35.8051 15.0519 35.5965 15.2561C35.388 15.4604 35.1403 15.6223 34.8677 15.7327C34.5951 15.843 34.303 15.8996 34.008 15.8993V15.8993Z" fill="#3D9EE1"/>
</svg>
