<svg width="46" height="47" viewBox="0 0 46 47" fill="none" xmlns="http://www.w3.org/2000/svg">
<path d="M23 3.16846C11.8863 3.16846 2.875 12.1798 2.875 23.2935C2.875 34.4071 11.8863 43.4185 23 43.4185C34.1137 43.4185 43.125 34.4071 43.125 23.2935C43.125 12.1798 34.1137 3.16846 23 3.16846ZM32.6717 18.3386C32.6852 18.5497 32.6852 18.7698 32.6852 18.9854C32.6852 25.58 27.6629 33.1763 18.4854 33.1763C15.6553 33.1763 13.0318 32.3542 10.8217 30.9392C11.226 30.9841 11.6123 31.002 12.0256 31.002C14.3615 31.002 16.5088 30.2114 18.2203 28.8728C16.0281 28.8278 14.1863 27.3903 13.5574 25.4138C14.3256 25.5261 15.0174 25.5261 15.808 25.3239C14.6792 25.0946 13.6647 24.4816 12.9367 23.589C12.2087 22.6964 11.8121 21.5793 11.8145 20.4274V20.3646C12.4748 20.7374 13.252 20.9665 14.065 20.9979C13.3815 20.5424 12.821 19.9253 12.4331 19.2012C12.0452 18.4772 11.842 17.6686 11.8414 16.8472C11.8414 15.9173 12.084 15.0683 12.5197 14.3315C13.7726 15.8739 15.336 17.1353 17.1083 18.0338C18.8807 18.9324 20.8222 19.4479 22.8068 19.547C22.1016 16.1554 24.6352 13.4106 27.6809 13.4106C29.1184 13.4106 30.4121 14.0126 31.324 14.9829C32.4516 14.7718 33.5297 14.3495 34.491 13.7835C34.1182 14.938 33.3365 15.9128 32.2988 16.5282C33.3051 16.4204 34.2754 16.1419 35.1738 15.7511C34.4955 16.7483 33.6465 17.6333 32.6717 18.3386V18.3386Z" fill="#3D9EE1"/>
</svg>
