<?xml version="1.0" encoding="utf-8"?>
<!-- Generator: Adobe Illustrator 16.0.0, SVG Export Plug-In . SVG Version: 6.00 Build 0)  -->
<!DOCTYPE svg PUBLIC "-//W3C//DTD SVG 1.1//EN" "http://www.w3.org/Graphics/SVG/1.1/DTD/svg11.dtd">
<svg version="1.1" xmlns="http://www.w3.org/2000/svg" xmlns:xlink="http://www.w3.org/1999/xlink" x="0px" y="0px" width="800px"
	 height="800px" viewBox="0 0 800 800" enable-background="new 0 0 800 800" xml:space="preserve">
<g id="Layer_3">
	<path fill="#3EA7E3" fill-rule="evenodd" clip-rule="evenodd" d="M174.683,361c0-55.118,0.017-110.236-0.019-165.354
		c-0.005-7.802,2.646-14.034,10.13-17.2c2.546-1.077,5.543-1.516,8.336-1.52c62.397-0.083,122.795-0.004,185.193-0.104
		c16.593-0.026,22.173,18.746,18.306,31.666c-3.291,10.995-11.195,14.076-21.621,14.054c-45.038-0.095-88.077-0.043-133.115-0.039
		c-9.248,0.001-17.725,8.586-17.717,17.803c0.02,22.879,0.008,42.758-0.03,65.638c-0.011,6.824,8.825,15.916,15.653,15.918
		c39.278,0.013,77.562-0.328,116.833,0.188C370.351,322.231,379,330.75,379,346.375c0,13.375-10.879,22.107-19.416,22.109
		c-39.998,0.01-78.997,0.002-118.995,0.007c-8.887,0.001-17.898,9.037-17.905,17.953c-0.033,49.438-0.163,74.877-0.022,124.314
		c0.036,12.479,3.164,24.485,7.024,36.343c5.245,16.109,15.734,28.472,28.186,39.142c10.798,9.254,23.766,14.865,37.456,18.757
		c14.288,4.062,28.841,5.909,43.629,7.35c12.721,1.239,25.409,1.483,37.955,0.668c18.015-1.17,36.086-3.309,53.327-9.385
		c12.659-4.461,24.068-10.805,34.883-19.116c12.435-9.557,19.56-22.078,25.354-35.755c4.627-10.919,7.092-22.478,7.436-34.441
		c3.226-112.285,0.344-206.592,1.253-318.885c0.053-6.56,8.555-14.413,14.897-16.55c19.089-6.43,28.32,7.32,39.089,18.032
		c22.157,22.042,44.147,44.25,66.297,66.299c7.762,7.727,6.664,17.321,4.156,26.004c-2.093,7.241-8.622,11.495-16.599,13.518
		c-11.22,2.846-18.676-2.787-25.751-9.741c-11.344-11.149-22.475-22.514-33.73-33.753c-0.547-0.546-1.562-1.204-2.124-1.034
		c-0.477,0.287-0.388,0.931-0.385,2.283c0.074,1.276,0.121,2.556,0.119,3.834c-0.088,64.956-0.187,176.912-0.274,241.869
		c-0.032,24.459,0.328,4.927-0.206,29.374c-0.291,13.295-3.252,26.237-7.532,38.982c-3.72,11.075-9.556,20.959-16.264,30.037
		c-5.941,8.042-13.596,14.955-21.826,21.155c-6.723,5.064-13.718,9.614-21.061,13.455c-7.883,4.124-16.271,7.453-24.727,10.267
		c-9.625,3.203-19.515,5.67-29.392,8.031c-5.654,1.351-11.486,2.105-17.282,2.695c-19.424,1.976-38.926,3.003-58.429,2.273
		c-14.73-0.552-29.586-1.162-44.085-3.565c-17.882-2.963-35.234-8.229-52.131-15.304c-18.214-7.627-34.219-18.177-47.434-32.499
		c-8.482-9.193-14.716-20.12-19.568-31.98c-4.686-11.453-6.883-23.301-9.045-35.242c-0.888-4.901-0.981-9.994-0.987-15.001
		c-0.064-54.958-0.041-112.916-0.041-167.874C174.794,361,174.739,361,174.683,361z"/>
	<path fill="#3EA7E3" fill-rule="evenodd" clip-rule="evenodd" d="M486.837,259.099c0.151,7.068-2.43,12.792-6.654,17.961
		c-6.925,8.472-14.53,16.43-20.968,25.247c-6.88,9.424-16.272,10.568-26.413,9.669c-8.961-0.795-17.542-11.406-18.025-20.312
		c-0.51-9.396,1.71-17.091,8.494-24.209c8.052-8.449,14.782-18.155,22.105-27.3c5.548-6.927,10.932-14,16.769-20.677
		c3.39-3.877,4.71-5.845,24.844-28.479c-0.166,16.667-0.032,53.249,0,63.625"/>
</g>
</svg>
