<svg width="100%" height="100%" viewBox="0 0 88 88" fill="none" xmlns="http://www.w3.org/2000/svg">
<path fill-rule="evenodd" clip-rule="evenodd" d="M39.1536 1.02353C34.8726 1.99249 31.3343 4.00001 28.0048 7.35036C22.03 13.3625 20.026 21.8514 22.6077 30.2101C23.8004 34.0716 27.1999 38.9666 30.0661 40.9487C31.1469 41.696 32.0393 42.4904 32.0497 42.7137C32.0602 42.9369 31.0335 44.3185 29.7688 45.7831L27.4689 48.4469L25.9158 46.1341C23.8168 43.008 21.1868 41.5801 17.5069 41.5697C12.9887 41.5573 9.62792 43.6995 7.98034 47.643C4.86814 55.0909 11.7349 65.558 18.8566 64.2222C21.8819 63.6549 26.0306 59.2337 26.9026 55.6477C27.0916 54.8731 29.1513 52.0418 31.4805 49.3557C34.9541 45.3501 35.9017 44.5278 36.7508 44.7803C37.3201 44.9499 39.2863 45.3272 41.1203 45.619C44.2912 46.1237 45.9671 45.9859 51.4577 44.7679C52.5256 44.5308 53.2659 45.108 56.7211 48.8685C59.7866 52.2054 60.9559 53.8907 61.6445 55.9634C62.8193 59.5022 66.8612 63.7006 69.5841 64.2117C76.7581 65.5575 83.6432 55.1237 80.5176 47.643C77.1981 39.6979 65.7938 39.3792 61.8344 47.1209L61.1523 48.4543L58.5621 45.5663L55.9719 42.6779L58.4532 40.5858C67.5557 32.9107 69.1391 19.0987 62.0034 9.62336C56.664 2.53191 47.5854 -0.884556 39.1536 1.02353ZM45.9328 5.5591C47.1509 7.10774 48.972 11.8193 48.972 13.4226C48.972 14.5532 48.8636 14.579 44.0004 14.6074C39.0855 14.6362 39.0288 14.6233 39.0288 13.4515C39.0288 11.8238 40.8399 7.12017 42.0679 5.5591C43.3516 3.92743 44.6492 3.92743 45.9328 5.5591ZM36.2442 9.71533C35.5765 12.0216 34.9109 14.0272 34.7657 14.1728C34.62 14.318 32.9471 14.5248 31.0474 14.6322C28.151 14.7958 27.5942 14.7008 27.5942 14.0431C27.5942 13.2417 29.8369 10.4148 32.0686 8.40284C33.2315 7.35483 37.0983 5.16187 37.3469 5.40995C37.4086 5.4716 36.9124 7.40902 36.2442 9.71533ZM55.3206 7.98075C57.7453 9.86647 60.4066 13.0363 60.4066 14.0381C60.4066 14.7794 58.0431 14.93 54.8066 14.3951C53.3072 14.147 52.8781 13.8268 52.6494 12.7848C52.381 11.5628 51.0983 7.27678 50.5827 5.88126C50.2153 4.88595 52.8339 6.04631 55.3206 7.98075ZM34.5544 23.1669V28.1385H30.1381C25.0791 28.1385 25.1218 28.1812 25.1218 23.1669C25.1218 18.1526 25.0791 18.1953 30.1381 18.1953H34.5544V23.1669ZM49.9663 23.1828V28.1698L44.1247 28.0301L38.2831 27.8899L38.1409 23.0426L37.9987 18.1953H43.9825H49.9663V23.1828ZM62.5791 19.3139C62.7437 19.9289 62.8789 21.663 62.8789 23.1669C62.8789 28.1812 62.9217 28.1385 57.8626 28.1385H53.4464V23.1669V18.1953H57.8626C62.0223 18.1953 62.2968 18.2605 62.5791 19.3139ZM35.0555 32.8476C35.2643 33.4024 35.8246 35.1981 36.3014 36.8387C36.7782 38.4794 37.2768 40.1056 37.4096 40.4526C37.7919 41.4514 35.1614 40.283 32.6766 38.3506C30.2545 36.4664 27.0409 32.6084 27.4043 32.0208C27.538 31.8045 29.2288 31.6758 31.1618 31.7339C34.1825 31.8249 34.7299 31.9815 35.0555 32.8476ZM48.7607 33.8121C48.3764 36.3118 46.0502 41.078 44.8704 41.7825C44.2654 42.1444 43.7354 42.1444 43.1304 41.7825C41.9461 41.075 39.6239 36.3083 39.2366 33.7897L38.9204 31.7354L43.9969 31.7573L49.0734 31.7792L48.7607 33.8121ZM60.6223 32.063C60.9733 32.6308 57.3406 36.9297 55.1486 38.54C52.6574 40.3705 50.2332 41.3877 50.5912 40.4526C50.7239 40.1056 51.2226 38.4794 51.6994 36.8387C53.2743 31.4177 52.9263 31.7603 56.8842 31.7354C58.8216 31.7235 60.5035 31.8706 60.6223 32.063ZM20.5017 45.8761C22.7752 46.9549 24.3637 50.267 23.87 52.8999C23.0457 57.2933 20.2795 60.4537 17.2583 60.4537C13.8547 60.4537 10.0565 54.5525 10.8634 50.518C11.7727 45.9725 16.2058 43.8372 20.5017 45.8761ZM74.2961 45.9501C76.2525 46.9991 77.812 49.5819 77.7961 51.7455C77.7822 53.6869 76.1147 57.348 74.4532 59.0865C70.7832 62.9266 64.7119 58.3676 64.6881 51.7535C64.6776 48.8267 65.7167 46.9812 68.0126 45.8492C70.1245 44.8077 72.2295 44.8415 74.2961 45.9501ZM12.8117 65.9702C7.33404 66.4942 2.64435 70.4704 1.0092 75.9779C0.094432 79.0568 -0.0104682 86.3432 0.847128 87.2008C1.28612 87.6398 5.61586 87.7974 17.2359 87.7974C35.0515 87.7974 34.0572 88.0305 34.0572 83.8529V81.8315H44.0004H53.9435V83.8529C53.9435 88.031 52.9442 87.7974 70.8036 87.7974C84.2353 87.7974 86.7276 87.685 87.2501 87.0551C87.6796 86.5376 87.8069 84.8408 87.6707 81.4457C87.5076 77.3854 87.2471 76.1127 86.1011 73.7701C84.5391 70.5773 82.0931 68.2119 78.8874 66.7935C77.0733 65.991 75.6375 65.8285 70.7345 65.8692C64.0999 65.9249 62.0079 66.5354 58.7988 69.3528C56.9488 70.977 54.4407 75.354 54.4407 76.9573C54.4407 77.7931 53.7302 77.8542 44.0004 77.8542C34.3928 77.8542 33.5591 77.7846 33.5491 76.9842C33.5109 73.9376 29.1408 68.539 25.4231 66.9451C23.0775 65.9398 17.577 65.5143 12.8117 65.9702ZM24.1136 70.3964C28.3548 72.56 30.08 75.5748 30.08 80.8213V84.3173H17.1539H4.2278V80.7457C4.2278 75.2953 6.116 72.1662 10.6739 70.0643C11.367 69.7446 14.2356 69.4652 17.0495 69.4428C21.2375 69.41 22.5182 69.5825 24.1136 70.3964ZM78.3405 70.713C79.6649 71.4339 81.3732 72.9249 82.1363 74.0261C83.3305 75.7483 83.5487 76.6073 83.6999 80.1725L83.8749 84.3173H70.8469H57.8189L57.9939 80.1784C58.2066 75.1591 59.3665 73.0591 63.1409 70.8602C65.4502 69.5149 65.9931 69.4115 70.7798 69.407C75.4118 69.403 76.1759 69.5353 78.3405 70.713Z" fill="black"/>
</svg>
