<svg width="100%" height="100%" viewBox="0 0 89 109" fill="none" xmlns="http://www.w3.org/2000/svg">
<path d="M17.474 38.468C17.4402 25.6795 26.2912 14.6767 38.9328 11.792C47.0306 9.94398 56.3223 12.57 62.816 18.542C70.2009 25.3335 73.3293 37.5682 69.9997 46.6351C66.7556 55.4679 60.4279 61.751 52.3469 64.1633C35.1198 69.3055 17.5207 56.3382 17.474 38.468Z" fill="#242424"/>
<path d="M70.2173 71.7907C73.9379 68.0462 77.6197 64.6487 78.3987 64.2402C81.2389 62.7517 85.0687 63.7354 86.9898 66.4473C88.4609 68.5235 88.521 71.7862 87.1294 74.0422C85.2222 77.1346 67.6012 94.1214 64.911 95.4607C62.5 96.6611 62.1125 96.6975 51.7458 96.6975H41.0646V95.1995V93.7015L50.7522 93.4478C63.6536 93.1098 62.9899 93.4448 75.2196 81.0853C80.979 75.2645 84.5346 71.2958 84.5346 70.6886C84.5346 68.939 83.1208 67.4864 81.4182 67.4864C80.0465 67.4864 78.6868 68.6464 70.6406 76.6837C63.134 84.1822 61.1125 85.9388 59.6946 86.1935C58.7383 86.3653 54.2909 86.4397 49.8122 86.3588C42.6941 86.2299 41.5991 86.1016 41.1207 85.3376C40.7218 84.7015 40.7218 84.2261 41.1197 83.59C41.5932 82.8335 42.7621 82.6827 49.8112 82.4665C54.2909 82.3291 58.2355 82.035 58.5768 81.8128C59.2808 81.3549 59.395 79.058 58.7636 78.0573C58.1734 77.1216 39.6566 72.4748 36.3733 72.4383C34.0174 72.4123 32.8167 72.8293 27.0583 75.673C23.4222 77.4686 20.4473 79.1534 20.4473 79.4165C20.4473 79.6802 22.9363 84.2201 25.9782 89.5051C30.7858 97.857 31.4505 99.2821 31.06 100.398C30.7386 101.317 28.9893 102.639 24.9081 105.048C20.1686 107.846 18.8764 108.395 17.2599 108.299C15.3884 108.187 15.2245 108.029 12.9749 104.188C6.0724 92.3987 0.936472 83.3003 0.724835 82.4879C0.277217 80.7667 1.52369 79.6187 7.77245 75.9986C14.6616 72.0074 15.8544 71.8151 17.3612 74.4536L18.1824 75.8922L23.9537 72.9441C31.0893 69.299 33.3527 68.4826 36.2834 68.4951C37.5467 68.5 43.3747 69.7084 49.2345 71.1795C58.8287 73.5883 60.015 74.0017 61.1577 75.3325C61.8557 76.1449 62.6575 77.2124 62.9392 77.7043C63.3873 78.4858 64.3044 77.7402 70.2173 71.7907Z" fill="#242424"/>
<path d="M35.0826 96.8768C33.8103 97.1279 32.7645 95.5765 33.4009 94.3816C34.015 93.2276 36.261 93.1507 36.6882 94.2687C37.0842 95.3064 36.2605 96.6441 35.0826 96.8768Z" fill="#242424"/>
<path d="M17.474 38.468C17.4402 25.6795 26.2912 14.6767 38.9328 11.792C47.0306 9.94398 56.3223 12.57 62.816 18.542C70.2009 25.3335 73.3293 37.5682 69.9997 46.6351C66.7556 55.4679 60.4279 61.751 52.3469 64.1633C35.1198 69.3055 17.5207 56.3382 17.474 38.468Z" fill="#242424"/>
<path d="M70.2173 71.7907C73.9379 68.0462 77.6197 64.6487 78.3987 64.2402C81.2389 62.7517 85.0687 63.7354 86.9898 66.4473C88.4609 68.5235 88.521 71.7862 87.1294 74.0422C85.2222 77.1346 67.6012 94.1214 64.911 95.4607C62.5 96.6611 62.1125 96.6975 51.7458 96.6975H41.0646V95.1995V93.7015L50.7522 93.4478C63.6536 93.1098 62.9899 93.4448 75.2196 81.0853C80.979 75.2645 84.5346 71.2958 84.5346 70.6886C84.5346 68.939 83.1208 67.4864 81.4182 67.4864C80.0465 67.4864 78.6868 68.6464 70.6406 76.6837C63.134 84.1822 61.1125 85.9388 59.6946 86.1935C58.7383 86.3653 54.2909 86.4397 49.8122 86.3588C42.6941 86.2299 41.5991 86.1016 41.1207 85.3376C40.7218 84.7015 40.7218 84.2261 41.1197 83.59C41.5932 82.8335 42.7621 82.6827 49.8112 82.4665C54.2909 82.3291 58.2355 82.035 58.5768 81.8128C59.2808 81.3549 59.395 79.058 58.7636 78.0573C58.1734 77.1216 39.6566 72.4748 36.3733 72.4383C34.0174 72.4123 32.8167 72.8293 27.0583 75.673C23.4222 77.4686 20.4473 79.1534 20.4473 79.4165C20.4473 79.6802 22.9363 84.2201 25.9782 89.5051C30.7858 97.857 31.4505 99.2821 31.06 100.398C30.7386 101.317 28.9893 102.639 24.9081 105.048C20.1686 107.846 18.8764 108.395 17.2599 108.299C15.3884 108.187 15.2245 108.029 12.9749 104.188C6.0724 92.3987 0.936472 83.3003 0.724835 82.4879C0.277217 80.7667 1.52369 79.6187 7.77245 75.9986C14.6616 72.0074 15.8544 71.8151 17.3612 74.4536L18.1824 75.8922L23.9537 72.9441C31.0893 69.299 33.3527 68.4826 36.2834 68.4951C37.5467 68.5 43.3747 69.7084 49.2345 71.1795C58.8287 73.5883 60.015 74.0017 61.1577 75.3325C61.8557 76.1449 62.6575 77.2124 62.9392 77.7043C63.3873 78.4858 64.3044 77.7402 70.2173 71.7907Z" fill="#242424"/>
<path d="M35.0826 96.8768C33.8103 97.1279 32.7645 95.5765 33.4009 94.3816C34.015 93.2276 36.261 93.1507 36.6882 94.2687C37.0842 95.3064 36.2605 96.6441 35.0826 96.8768Z" fill="#242424"/>
<path d="M27.0617 99.0719L20.8095 88.1594C17.3706 82.1579 14.3729 77.186 14.1489 77.1111C13.5741 76.9188 5.04651 81.9516 5.04651 82.4829C5.04651 82.8629 7.61944 87.4144 15.5524 101.067C16.6294 102.921 17.624 104.437 17.7616 104.437C17.8997 104.437 18.6663 104.097 19.4657 103.682L20.9188 102.927L18.4154 98.6664C15.8579 94.3147 15.614 93.1962 17.0264 92.3024C18.3846 91.443 19.1899 92.1955 21.6759 96.6481C22.9949 99.0094 24.2081 100.937 24.3721 100.931C24.536 100.925 25.2082 100.504 25.8659 99.9956L27.0617 99.0719Z" fill="#F9FAFB"/>
<path d="M65.1953 28.194C62.439 22.3637 56.4655 17.3679 50.331 15.762C39.5951 12.9512 28.3127 18.2861 23.5141 28.4421C21.9472 31.7587 21.6998 32.8073 21.5225 36.8819C21.3993 39.7131 21.5657 42.457 21.9477 43.8901C22.9637 47.702 25.474 52.0202 28.3018 54.8205C35.1244 61.576 45.4608 63.3751 54.0083 59.2951C65.8888 53.6241 70.7843 40.0147 65.1953 28.194Z" fill="#F8F9FC"/>
<path d="M43.5193 22.8201C42.5435 22.4436 42.3861 19.0022 43.3027 18.0809C44.7275 16.6488 46.3366 18.055 46.0937 20.5197C45.9198 22.2868 44.7792 23.306 43.5193 22.8201Z" fill="#242424"/>
<path d="M44.488 35.4298L50.6692 29.2021C54.0688 25.7767 57.0884 22.9744 57.3795 22.9744C58.2325 22.9744 59.1009 24.0919 59.1009 25.19C59.1009 26.5561 45.816 39.9518 44.4612 39.9518C43.2306 39.9518 34.2609 31.0846 34.2609 29.8677C34.2609 29.0993 35.6067 27.9678 36.5208 27.9678C36.7066 27.9678 38.5756 29.6465 40.6736 31.6988L44.488 35.4298Z" fill="#242424"/>
<path d="M24.069 38.9292C23.8912 38.3664 24.0248 37.569 24.3656 37.156C25.1759 36.1743 28.2764 36.432 28.9655 37.538C29.7683 38.8273 28.5194 39.9518 26.2847 39.9518C24.8132 39.9518 24.3199 39.7241 24.069 38.9292Z" fill="#242424"/>
<path d="M61.8174 39.8634C59.8178 39.6992 59.1586 38.8258 59.7885 37.1765C60.2158 36.0575 63.9085 36.2208 64.529 37.3862C65.3557 38.9392 64.1355 40.0537 61.8174 39.8634Z" fill="#242424"/>
<path d="M42.7065 56.2296C42.7065 55.0582 42.8555 53.9497 43.0379 53.7669C43.565 53.2366 44.9386 53.3804 45.5879 54.0331C46.4156 54.865 46.3351 57.6797 45.4627 58.4072C45.0658 58.7383 44.2833 58.8631 43.7239 58.6844C42.9082 58.4242 42.7065 57.9379 42.7065 56.2296Z" fill="#242424"/>
</svg>
