<svg width="100%" height="100%" viewBox="0 0 82 89" fill="none" xmlns="http://www.w3.org/2000/svg">
<path fill-rule="evenodd" clip-rule="evenodd" d="M26.7803 0.754813C21.5121 2.075 17.0612 4.90086 15.224 8.0922C14.6505 9.08818 13.4087 10.0484 11.7148 10.8047C6.70293 13.0433 2.699 17.9039 0.943429 23.8808C0.471559 25.4879 0.152996 28.4067 0.156978 31.0909C0.162454 34.7874 0.428253 36.3582 1.63033 39.8096C2.90756 43.4753 3.00562 44.1198 2.3894 44.8C0.053944 47.3782 -0.603586 53.8037 1.12212 57.1834C2.54122 59.9626 4.45159 62.0565 6.84877 63.4597L8.96223 64.6969L8.30519 67.2274C6.60736 73.7667 10.682 79.1215 18.643 80.8122C19.5295 81.0006 20.3916 81.8236 21.2692 83.3198C24.5165 88.8551 34.5447 90.7909 39.2136 86.7836L40.5989 85.5942L42.0493 86.8139C46.6381 90.6711 56.1502 88.8889 59.632 83.5192C61.0366 81.3537 61.288 81.1965 63.8629 80.8793C67.4079 80.4427 71.5228 78.4557 73.014 76.4597C75.231 73.4922 75.6949 70.3695 74.6148 65.6834C74.3749 64.6422 74.6711 64.1976 76.4376 62.948C81.4948 59.3693 82.8048 50.3488 78.9348 45.7537L77.7422 44.3386L79.3061 39.7887C81.335 33.8854 81.6177 30.9288 80.5928 26.3367C78.8457 18.513 72.9473 11.917 66.2605 10.3104C65.5109 10.1304 64.7762 9.52178 64.5861 8.92359C64.0346 7.1882 60.3413 3.52448 57.9097 2.30175C55.1432 0.909954 51.2324 0.0432521 47.7859 0.0576723C45.0155 0.069109 40.9662 1.57627 40.9662 2.59513C40.9662 2.95513 40.5088 2.79005 39.8463 2.19136C37.4695 0.0427545 32.0151 -0.556926 26.7803 0.754813ZM36.467 4.51152C38.1604 5.41701 38.4775 7.7834 38.4775 19.5135V30.8761H35.7398H33.0022V26.1522V21.4284H28.8514C24.9281 21.4284 24.6698 21.3612 24.1442 20.2091C22.7131 17.0715 17.4614 16.6185 14.9587 19.4165C13.887 20.6144 13.5898 21.4423 13.5898 23.2264C13.5898 25.1557 13.8497 25.7654 15.2822 27.1964C16.5888 28.5017 17.3887 28.8871 18.7913 28.8871C21.0546 28.8871 23.1377 27.8419 24.2477 26.1492C24.9515 25.0762 25.4149 24.8788 26.9346 25.0051L28.7713 25.1577L28.9136 30.0059L29.056 34.8541H33.7667H38.4775V42.5614V50.2687H31.7578H25.0381V56.1422V62.0157L23.5648 63.1037C19.1472 66.3666 21.6066 73.4638 27.1048 73.3196C29.5722 73.255 31.4084 72.0119 32.3457 69.7708C33.3337 67.4088 32.5622 64.6317 30.4935 63.1037C29.0794 62.0595 29.0202 61.8591 29.0202 58.1312V54.2467H33.7488H38.4775V68.1418C38.4775 81.8942 38.466 82.0508 37.3411 83.3571C35.8568 85.0805 32.6548 85.4793 28.9455 84.4023C25.8649 83.5072 24.2492 82.0414 23.3015 79.2806C22.6688 77.4368 22.5479 77.3578 19.9013 77.0659C16.6082 76.7024 14.2374 75.4145 12.7203 73.166C11.2399 70.9711 11.2932 68.4864 12.8855 65.4979C13.5933 64.1698 13.9855 62.9122 13.7566 62.7029C13.5281 62.494 12.4724 62.045 11.4112 61.7059C8.68597 60.8352 4.85726 56.988 4.17783 54.4381C3.32219 51.2274 4.12058 48.2459 6.52622 45.6692C7.63521 44.4818 8.18225 44.3018 10.6849 44.3018C13.225 44.3018 13.6655 44.4524 14.3987 45.5702C16.769 49.1837 22.3543 49.038 24.2831 45.3127C26.4129 41.1984 23.5743 36.843 18.764 36.843C17.2618 36.843 16.5709 37.21 15.0353 38.8221L13.1503 40.8016L9.52618 40.5873L5.90154 40.373L4.96776 37.7376C3.61935 33.9341 3.67211 27.5251 5.08174 23.8425C7.13298 18.4832 11.2892 14.2695 15.1289 13.6559C16.533 13.4316 17.0661 13.0741 17.2832 12.2104C17.9895 9.39946 22.4961 5.91624 26.9938 4.70445C29.7678 3.95758 35.2227 3.8462 36.467 4.51152ZM56.2453 5.6885C58.9461 7.05544 60.9236 9.23139 61.7175 11.7082C62.1053 12.9185 62.606 13.2825 64.5737 13.7842C70.0519 15.18 74.5138 19.5697 76.3151 25.3343C77.9343 30.5186 77.4774 34.6765 74.5247 41.6171L73.1858 44.7637L74.7796 46.5767C76.6954 48.7566 77.3032 50.2245 77.2992 52.663C77.2952 55.5609 76.4356 57.9154 74.8164 59.4648L73.3202 60.8969V56.5773V52.2577H64.6095H55.8988V49.0589C55.8988 46.2619 56.0277 45.8194 56.9287 45.5339C57.4951 45.3544 58.3901 44.5002 58.9177 43.6359C62.0048 38.5784 56.6902 32.877 51.4245 35.5969C49.3499 36.669 48.4325 38.2483 48.4325 40.7484C48.4325 42.6056 48.6963 43.1894 50.1562 44.5648C51.87 46.1799 51.8805 46.2167 52.0228 51.0882L52.1657 55.9871L60.7519 56.1233L69.3381 56.2591V59.9357C69.3381 62.5657 69.6343 64.2961 70.378 66.0151C71.9026 69.5391 71.5054 72.897 69.3511 74.693C67.4855 76.2494 64.4612 77.1201 60.9241 77.1201C58.4528 77.1201 58.4204 77.1405 57.9167 79.0086C57.2497 81.4844 55.1114 83.4694 52.1542 84.3585C47.6516 85.712 44.2429 84.9617 43.0543 82.3551C42.7039 81.5869 42.4595 78.7128 42.4595 75.3564V69.6614H46.657C50.3514 69.6614 50.8904 69.7752 51.1562 70.6116C51.8307 72.7354 55.5439 74.0133 58.0103 72.9706C60.616 71.8687 61.623 70.3889 61.623 67.6605C61.623 64.9818 60.4214 63.2504 57.8147 62.1718C55.6888 61.2917 52.5987 62.2952 51.5017 64.221C50.6898 65.6461 50.5848 65.6769 46.5605 65.6804L42.4485 65.6834L42.5785 45.4206L42.7084 25.1577L50.4574 25.0215L58.2064 24.8847L58.9018 26.1826C59.7883 27.8374 61.8201 28.8871 64.1366 28.8871C65.5393 28.8871 66.3392 28.5017 67.6458 27.1964C69.0903 25.7534 69.3381 25.1637 69.3381 23.1687C69.3381 21.1738 69.0903 20.584 67.6458 19.141C66.3392 17.8358 65.5393 17.4504 64.1366 17.4504C61.8256 17.4504 59.7883 18.4996 58.9082 20.143L58.2193 21.4284H50.3394H42.4595L42.4625 15.3371C42.465 8.90818 42.9597 6.08232 44.3191 4.72384C45.6451 3.39967 52.8789 3.98444 56.2453 5.6885ZM20.8072 23.1687C20.8072 24.4934 20.6405 24.6605 19.321 24.6605C18.2826 24.6605 17.7819 24.3895 17.661 23.7615C17.3499 22.1484 17.9805 21.3523 19.4354 21.5194C20.5927 21.6521 20.8072 21.9102 20.8072 23.1687ZM65.391 22.216C66.2352 23.2324 65.4457 24.5953 63.8793 24.8271C62.3597 25.0513 61.6782 24.2547 62.067 22.7078C62.4418 21.2165 64.3283 20.9371 65.391 22.216ZM55.6499 40.5724C55.6499 41.7762 55.415 42.0975 54.4334 42.2357C52.8421 42.46 51.75 41.0672 52.4673 39.7281C52.8182 39.0732 53.3996 38.8211 54.3145 38.9265C55.4324 39.0553 55.6499 39.3238 55.6499 40.5724ZM20.8072 42.5614C20.8072 43.8861 20.6405 44.0531 19.321 44.0531C18.2826 44.0531 17.7819 43.7821 17.661 43.1541C17.3499 41.541 17.9805 40.7449 19.4354 40.912C20.5927 41.0448 20.8072 41.3029 20.8072 42.5614ZM28.5025 66.4054C29.2939 67.3581 28.726 69.0324 27.4776 69.4282C25.6006 70.0234 24.2313 67.6828 25.6354 66.2801C26.4458 65.4706 27.7743 65.5288 28.5025 66.4054ZM57.5852 66.8022C58.2243 67.8161 57.513 69.3188 56.2791 69.5619C55.5056 69.7141 53.9078 68.4411 53.9078 67.6724C53.9078 66.9036 55.5056 65.6307 56.2791 65.7828C56.6957 65.8649 57.2836 66.3234 57.5852 66.8022Z" fill="black"/>
</svg>
